<?xml version="1.0" encoding="UTF-8"?> <svg xmlns="http://www.w3.org/2000/svg" width="62" height="89" viewBox="0 0 62 89" fill="none"><path d="M56.84 16.035C51.58 6.94498 42.22 1.39499 31.82 1.18499C31.38 1.17499 30.93 1.17499 30.49 1.18499C20.08 1.39499 10.73 6.94498 5.45999 16.035C0.079989 25.325 -0.0700257 36.485 5.06997 45.885L26.59 85.275C26.6 85.285 26.61 85.305 26.62 85.325C27.56 86.965 29.26 87.955 31.15 87.955C33.05 87.955 34.74 86.965 35.69 85.325C35.7 85.305 35.7099 85.285 35.7199 85.275L57.24 45.885C62.38 36.485 62.23 25.325 56.84 16.035ZM31.15 40.495C24.43 40.495 18.95 35.025 18.95 28.295C18.95 21.565 24.43 16.085 31.15 16.085C37.88 16.085 43.36 21.565 43.36 28.295C43.36 35.025 37.88 40.495 31.15 40.495Z" fill="#E1A31D" stroke="white" stroke-width="2" stroke-miterlimit="22.9256"></path></svg> 