<?xml version="1.0" encoding="UTF-8"?> <svg xmlns="http://www.w3.org/2000/svg" width="45" height="44" viewBox="0 0 45 44" fill="none"><path fill-rule="evenodd" clip-rule="evenodd" d="M20.9907 8.80161C23.6163 8.41666 27.5448 9.25557 29.7065 10.677C29.8743 10.7855 29.8842 10.7954 30.0421 10.8941C33.4376 13.0262 36.1127 16.5304 36.6753 21.4461C37.6229 29.6486 31.2266 36.4889 23.9815 37.1206C19.4212 37.5253 15.5223 35.7684 12.9362 33.4883C12.8276 33.3994 12.798 33.3699 12.6894 33.281C12.5019 33.1231 12.4329 33.0538 12.2552 32.8663L9.43205 28.5628C9.25438 28.1778 9.10635 27.6843 8.96816 27.2796C8.81023 26.8255 8.68192 26.243 8.61283 25.9074C8.50425 25.4632 8.41541 24.8808 8.36606 24.4268C8.33645 24.1208 8.3364 23.7557 8.31666 23.5188C8.22782 22.206 8.41547 20.5674 8.79055 19.2644L8.8596 19.0078C9.27417 17.5074 9.70844 16.6982 10.429 15.494C10.4882 15.3854 10.5376 15.2965 10.5969 15.2077L11.3273 14.2107C11.4951 13.9738 11.5346 13.9443 11.7221 13.7468C11.8702 13.6087 11.8702 13.6086 11.9887 13.4704L14.5353 11.1507C14.7129 11.0421 14.6735 11.0719 14.8117 11.0028L15.3052 10.7264C17.1313 9.59122 18.8389 9.11748 20.9907 8.80161ZM21.8495 0.983846C20.3886 0.786432 19.0264 2.39553 18.5723 3.3826C17.8715 4.88295 17.2398 5.88982 16.1047 6.64987C11.7122 9.59134 9.7776 6.57072 6.78677 7.94275C5.57267 8.49551 4.59547 9.56162 4.31909 11.2298C4.00323 13.194 5.14823 14.1911 5.55293 15.7605C6.17479 18.1295 5.46402 20.6563 3.87484 22.3343C3.36156 22.8772 2.97668 23.1635 2.34495 23.6274C0.2721 25.187 0.143771 29.6288 3.56891 30.9514C4.74352 31.4055 6.076 31.2872 7.6948 32.5605C8.69174 33.3403 9.56043 34.3568 10.1033 35.8769C10.7153 37.6142 10.1626 39.3416 10.8733 40.8419C11.3964 41.9573 12.6204 43.0628 14.1799 43.2799C16.3021 43.5662 17.072 42.6383 18.2368 41.7895C23.4386 37.9892 27.3771 42.5001 28.532 42.9838C29.3216 43.3095 29.9533 43.4083 30.8615 43.2701C32.4309 43.043 33.6351 41.977 34.1681 40.8419C35.2144 38.6111 33.4179 35.7781 37.3662 32.5701C38.8468 31.3659 39.676 31.6226 41.4725 30.9514C44.868 29.6781 44.7989 25.1673 42.6964 23.6274C41.5613 22.7983 40.663 22.0777 39.9721 20.6069C37.7808 15.9677 41.1862 14.0627 40.7223 11.2298C40.4656 9.71955 39.37 8.45602 38.2546 7.94275C35.323 6.58059 33.2007 9.60121 28.9465 6.64987C27.8015 5.86021 27.1994 4.90269 26.4788 3.3826C25.8865 2.11915 24.3665 0.825914 23.182 0.983846C22.6095 1.06281 22.8858 0.924805 22.5206 0.924805C22.1554 0.924805 22.4319 1.06281 21.8495 0.983846Z" fill="white"></path><path fill-rule="evenodd" clip-rule="evenodd" d="M26.9527 19.6494C27.1699 19.5013 27.1897 19.5014 27.4167 19.4619C28.315 19.3336 28.9368 19.906 28.9763 20.6562C29.0355 21.8111 27.9398 22.1565 27.012 22.8672L21.4054 26.9931C19.9445 28.1381 19.1055 26.3714 18.5527 25.6212C18.4047 25.4238 18.3949 25.394 18.2764 25.2163C17.467 24.022 16.6971 23.3904 17.1215 22.4033C17.2301 22.1269 17.2301 22.1171 17.4472 21.9493C19.145 20.6562 20.0235 23.4595 20.7934 24.0912L26.9527 19.6494ZM11.0017 24.1109C11.1991 26.2726 12.1862 28.7008 13.5582 30.2703C14.3084 31.1191 14.0814 30.9414 14.9698 31.6718C16.2431 32.728 16.8353 33.2116 18.6219 33.8631C20.0433 34.3764 21.8102 34.6726 23.7152 34.4653C26.9133 34.1198 29.2526 32.7774 31.2761 30.4874C33.3884 28.0987 34.3163 25.0289 34.0399 21.8703C33.5365 15.9577 28.1965 10.736 21.3462 11.4369C15.3152 12.0587 10.3799 17.3594 11.0017 24.1109Z" fill="white"></path></svg> 