<?xml version="1.0" encoding="UTF-8"?> <svg xmlns="http://www.w3.org/2000/svg" width="43" height="31" viewBox="0 0 43 31" fill="none"><path fill-rule="evenodd" clip-rule="evenodd" d="M5.19454 26.3582C5.53014 25.5587 5.39194 24.3939 7.03048 22.8837C9.281 20.801 12.4594 20.8108 14.7987 22.8244C15.7759 23.6733 16.2892 24.6999 16.6544 26.3582C18.4805 26.3582 20.3065 26.3582 22.1425 26.3582C23.1394 26.3582 23.8501 26.447 24.3831 25.835C24.8964 25.2428 24.7681 24.2853 24.7681 23.3772V6.59703C24.7681 5.47177 24.936 1.85907 24.5806 1.14838C24.2253 0.42782 23.6626 0.309525 22.636 0.319396H3.05255C2.05561 0.319396 1.31536 0.210818 0.762601 0.812932C0.229582 1.40517 0.377629 2.27376 0.377629 3.24109V20.0213C0.377629 21.0182 0.229582 24.8777 0.515833 25.4897C0.861308 26.2201 1.43374 26.3582 2.42081 26.3582C3.34866 26.3483 4.26669 26.3582 5.19454 26.3582Z" fill="white"></path><path fill-rule="evenodd" clip-rule="evenodd" d="M10.6923 23.4269C8.57009 23.7032 7.06981 25.1345 7.17839 27.4344C7.27709 29.379 9.10315 31.0965 11.2254 30.9287C14.5222 30.6523 15.9139 26.5459 13.4067 24.3546C12.8046 23.8315 11.7781 23.2887 10.6923 23.4269Z" fill="white"></path><path fill-rule="evenodd" clip-rule="evenodd" d="M33.4443 23.4465C32.1118 23.5946 31.628 23.9499 30.9174 24.6705C28.7261 26.9112 30.5225 31.2938 34.0858 30.9187C36.0402 30.7115 37.6294 29.0234 37.4616 26.8025C37.3136 24.9468 35.5172 23.2096 33.4443 23.4465Z" fill="white"></path><path fill-rule="evenodd" clip-rule="evenodd" d="M39.8702 16.5966H31.2728L31.2629 10.0917H35.1421C35.6159 10.0917 35.843 10.3583 36.0503 10.6643L37.8072 13.1023C38.4488 14.0499 39.8801 15.6391 39.8702 16.5966ZM27.9858 26.3586C28.2524 25.4801 28.1141 25.411 28.657 24.3647C30.6904 20.3868 36.7411 20.308 38.7745 24.2958C39.3272 25.3815 39.1792 25.4998 39.4457 26.3586C40.6796 26.3586 41.8443 26.5561 42.4069 25.6677C42.8314 24.9866 42.6735 23.1605 42.6735 22.1932C42.6735 20.9297 42.6735 19.6761 42.6735 18.4126C42.6735 17.011 42.7722 16.2115 42.2984 15.0468C41.7555 13.734 40.1564 11.6907 39.2779 10.5161C36.0995 6.25191 37.2051 6.81454 31.6478 6.81454C30.5325 6.81454 28.9433 6.72571 27.8872 6.82442C27.3245 6.88364 26.9396 7.11083 26.6632 7.48592C26.3572 7.91036 26.3967 8.50251 26.3967 9.11449V24.2167C26.3967 25.3617 26.6928 26.2698 27.9858 26.3586Z" fill="white"></path></svg> 