<?xml version="1.0" encoding="UTF-8"?> <svg xmlns="http://www.w3.org/2000/svg" width="410" height="77" viewBox="0 0 410 77" fill="none"><path fill-rule="evenodd" clip-rule="evenodd" d="M287.637 76.4225L295.168 56.4244L292.839 57.1351C291.141 57.4707 289.423 57.6582 287.676 57.6681C284.626 57.6582 281.162 57.283 278.052 55.8123L276.552 54.8746L274.598 55.9012C272.505 56.7007 269.524 57.4312 266.671 57.4312L224.445 57.4016L234.444 34.4324H243.288L241.353 32.0732C239.28 29.1317 237.938 25.6869 237.938 21.7583C237.938 16.0531 239.803 10.5453 244.452 6.58718C248.016 3.55687 252.645 2.10587 257.334 1.40505C258.084 1.30635 258.893 1.20761 259.782 1.12865C260.828 1.02994 261.855 0.99032 262.802 0.99032C262.644 0.99032 269.356 0.990339 270.057 1.01008C270.56 1.03969 272.169 1.05961 273.245 1.18793C274.677 1.37547 276.197 1.8097 277.598 2.57961C279.345 3.49759 280.629 4.75103 281.537 6.1428L308.415 6.15268L304.782 15.8853H340.179L340.613 14.8884C340.909 14.2468 341.195 13.6644 341.452 13.1511C342.903 10.2195 344.699 7.33717 346.98 5.16561C349.803 2.46104 353.445 0.773193 357.64 0.773193C361.026 0.773193 364.362 1.79985 367.215 4.08986C370.363 6.65624 372.219 10.2986 372.219 14.5035L371.903 17.1883L374.351 16.2998C375.901 15.9346 377.529 15.7472 379.217 15.7472C382.761 15.7472 386.285 16.7242 389.315 19.0142C392.839 21.6695 394.675 25.5585 394.675 29.8622C394.675 31.2046 394.527 32.478 394.221 33.6724L393.915 34.5115H409.274L409.412 40.6115L394.704 52.0811L394.487 52.2293C393.451 52.94 392.345 53.6014 391.092 54.2529C390.539 54.5391 389.966 54.7857 389.345 55.0522C388.693 55.3286 388.042 55.5951 387.341 55.8222C383.926 56.9672 380.313 57.4411 376.552 57.4411C372.14 57.4411 367.293 56.9572 363.572 54.7758L362.309 53.9172L361.105 54.6377C359.071 55.6149 357.018 56.3552 354.916 56.8685C352.349 57.5002 348.579 57.6879 346.792 57.6879C344.788 57.6879 342.794 57.5595 340.978 57.1845C340.04 56.987 339.014 56.7006 337.987 56.2465L336.132 55.1412L335.135 55.5853C333.605 56.1677 332.075 56.5625 330.584 56.7994L329.686 56.8982L328.946 58.9217C327.505 62.9391 325.708 66.69 323.369 69.5426C320.22 73.4909 315.699 76.4225 309.964 76.4225H287.637ZM158.459 75.0799L164.756 58.1419L161.45 57.905C160.058 57.678 158.666 57.3225 157.314 56.7697L155.32 55.7335L152.151 56.977C150.394 57.4508 148.539 57.7272 146.575 57.7469C143.455 57.7469 140.198 57.1251 137.335 55.3385L137.118 55.1708L135.352 55.9899C134.147 56.4538 132.923 56.8389 131.66 57.1449L131.383 57.2141L131.107 57.2633C130.831 57.3027 130.347 57.3916 129.617 57.5001L128.58 57.6681C127.563 57.8063 126.497 57.8457 125.599 57.8457C123.872 57.8457 121.483 57.7075 119.124 56.8092L117.11 55.7728L116.311 57.6582L90.6076 57.6088L89.5613 57.6681C87.6562 57.6582 85.6821 57.5398 83.8955 57.1548C82.2668 56.839 80.6184 56.2959 79.0588 55.4964L77.3611 54.4206L74.2222 55.8716C72.8107 56.3651 71.5373 56.7203 70.264 56.9967C68.7439 57.3323 67.1844 57.5001 65.605 57.5001C62.5254 57.5001 59.3372 56.9376 56.4253 55.3879L54.3623 53.9864L53.2173 54.5785C49.0321 56.3749 44.7383 57.4411 40.4248 57.4411L3.18267 57.6582L15.3829 24.7393L0.922269 24.7294L0.793945 18.8366L19.1535 1.0496H34.6307C39.2009 1.0496 43.0899 1.22742 45.9821 1.69134C50.0488 2.29346 54.234 3.65551 57.5407 6.51801L60.0182 9.27198L61.0941 7.85066C63.7493 4.90919 67.6285 3.12255 71.5966 3.12255C78.0619 3.12255 83.5401 8.01843 83.8066 14.4837C83.9251 15.8953 83.7672 17.0402 83.5697 18.1359L85.3563 17.1883C87.1627 16.4085 89.1566 15.8952 91.3183 15.8952H106.292L111.988 0.773193H137.947L132.351 15.915H180.451L182.306 10.9302L208.72 11.0092L206.638 16.596L207.052 16.7442C207.743 17.0403 208.385 17.366 208.938 17.7016C213.133 20.0706 215.591 24.2458 215.591 29.1712V29.9906C215.591 30.4841 215.571 31.0269 215.541 31.629L215.334 33.2971L215.275 33.6427L215.225 33.8895L215.087 34.4719H233.545L220.526 48.2613C217.417 51.5482 213.636 53.8086 209.254 55.3682C204.91 56.9277 200.36 57.6879 195.642 57.6879L191.368 57.5594L184.902 75.0602L158.459 75.0799Z" fill="#3C2713"></path><path fill-rule="evenodd" clip-rule="evenodd" d="M293.382 72.4446L299.225 56.9378L308.069 56.9279C308.286 56.4936 308.652 55.6052 309.185 54.1443L309.431 53.483L308.563 53.5915C305.572 53.5915 302.364 52.8807 300.242 50.3143L300.094 50.0972L299.738 50.3341C298.662 50.9263 297.547 51.4595 296.372 51.9234C293.52 53.0783 290.618 53.6804 287.676 53.6804C283.925 53.6804 280.244 53.0288 277.598 50.8672L276.769 50.0085L275.516 50.9561C274.746 51.4299 273.946 51.8543 273.097 52.2196C271.429 52.8513 268.932 53.4633 266.671 53.4633L230.505 53.4336L237.049 38.4006H253.543L253.919 38.3413L253.326 37.8181C249.812 35.0247 247.404 33.0209 246.506 32.1029C243.692 29.1516 241.916 25.687 241.916 21.7584C241.916 16.9317 243.465 12.6576 247.029 9.61741C249.783 7.26818 253.583 5.98516 257.896 5.34356C258.558 5.25472 259.298 5.16588 260.147 5.08691C261.065 5.00795 261.953 4.96835 262.802 4.96835C263.296 4.96835 269.297 4.96837 269.889 4.98811C270.106 4.99798 271.933 5.03761 272.742 5.13631C273.749 5.2745 274.775 5.57059 275.723 6.08386C278.506 7.54473 279.454 10.259 279.444 12.8254C279.464 14.1876 279.01 15.8855 278.526 17.4253L277.569 19.8535L282.188 19.8633L285.801 10.1307H302.68L299.038 19.8633H305.957L300.508 34.6694L293.618 34.699L292.266 38.3907H299.965L306.677 19.8633H323.971H339.132L332.252 38.45H335.934L336.132 37.8873C337.089 35.0741 338.185 32.0042 339.419 28.6284L341.294 23.5747C342.794 19.7548 344.038 16.8528 345.015 14.928C346.377 12.1642 347.917 9.75575 349.733 8.03824C351.895 5.9654 354.57 4.75122 357.64 4.75122C360.206 4.75122 362.644 5.5211 364.707 7.17938C366.958 9.01533 368.241 11.5424 368.241 14.5036C368.241 18.4716 366.188 22.9923 363.197 27.7204C362.003 29.5267 360.72 31.343 359.338 33.169L355.172 38.3116H360.275L360.414 36.7619C360.631 35.4984 360.966 34.2646 361.411 33.0604C362.319 30.6322 363.71 28.4014 365.487 26.3976C369.139 22.1335 373.779 19.7151 379.217 19.7151C382.03 19.7151 384.676 20.485 386.907 22.1828C389.414 24.0681 390.707 26.7727 390.707 29.8623C390.707 32.8235 389.641 35.4394 387.884 37.6899L387.153 38.4892H405.661L392.276 48.9227C391.339 49.5643 390.361 50.1467 389.285 50.7093C388.871 50.9166 388.377 51.1337 387.795 51.3903C387.193 51.6371 386.62 51.8739 386.068 52.0615C383.156 53.0288 379.977 53.4732 376.552 53.4732C372.268 53.4732 368.35 52.9597 365.556 51.3409C364.569 50.7586 363.72 50.0972 363.029 49.3273L362.802 48.9918L359.367 51.0744C357.6 51.9134 355.804 52.5552 353.958 53.0191C351.895 53.5226 348.49 53.71 346.792 53.71C344.936 53.71 343.239 53.5914 341.797 53.2854C340.297 52.9794 338.767 52.407 337.464 51.3508L336.546 50.4329L334.996 51.3212C332.44 52.5254 329.893 53.019 327.426 53.1375H326.833L325.205 57.5595C323.833 61.4091 322.214 64.6764 320.26 67.0355C317.654 70.3027 314.199 72.4446 309.964 72.4446H293.382ZM164.184 71.0922L170.856 53.1276L168.912 53.7987C167.787 54.0751 166.671 54.2233 165.556 54.2233C162.397 54.2233 159.347 53.6803 156.86 52.0812L155.744 51.2226L155.34 51.4793C152.655 52.8809 149.743 53.7296 146.545 53.7691C143.969 53.7691 141.511 53.256 139.418 51.953C138.757 51.5483 138.155 51.0943 137.582 50.5317L136.951 50.8869C134.986 51.9431 132.913 52.7327 130.633 53.2953L130.416 53.3447C130.169 53.3941 129.705 53.473 129.024 53.5717L127.988 53.7298C127.267 53.8384 126.438 53.858 125.599 53.858C123.447 53.858 120.97 53.6112 119.025 52.3181C118.216 51.7654 117.515 50.9757 116.933 50.117L115.916 48.3995L113.675 53.6804H96.3425L96.7373 52.6044L94.2005 53.2659C92.6508 53.5423 91.1011 53.6804 89.5613 53.6804C87.8043 53.6804 86.1263 53.5719 84.695 53.2659C82.6913 52.8612 80.806 52.1208 79.1971 50.8968L77.7658 49.5644L75.8114 50.7587C74.8638 51.2819 73.8767 51.7358 72.8304 52.1405C71.6558 52.5551 70.5404 52.8611 69.4152 53.1177C68.1616 53.3842 66.8883 53.5322 65.6051 53.5322C62.1207 53.5322 58.8535 52.6835 56.2279 50.4724L55.0631 49.2287L54.2439 49.7222C53.4542 50.1368 52.5757 50.5415 51.6577 50.9264C47.8476 52.565 44.077 53.4732 40.4249 53.4732H29.8632L34.917 39.5257H31.8374L26.4677 53.6804H8.89784L21.098 20.7615L4.57446 20.7516L20.7624 5.02763H34.6308C39.1417 5.02763 42.7741 5.2054 45.38 5.61997C49.0618 6.17273 52.4079 7.33742 54.9348 9.51885C57.9651 12.1642 59.2286 15.8558 59.2286 19.8732C59.2286 25.2725 57.1755 29.9314 53.2074 33.6527C50.9569 35.6959 48.3609 37.1667 45.4688 38.1242L43.8994 38.4892H54.1945L61.2521 19.9619H62.3773L61.8937 18.7775C61.5778 17.6423 61.5186 16.3789 61.7752 15.0463C62.6438 10.4169 67.0462 7.0907 71.5966 7.0907C76.6405 7.0907 80.6875 11.2856 79.6906 16.606C79.4636 17.7608 79.0194 18.8368 78.3482 19.8831L78.5653 19.9619L71.2215 38.5485H74.4097L74.4887 37.4135C74.844 35.0149 75.7127 32.6557 76.9959 30.3756C78.5456 27.6216 80.5592 25.2329 83.0367 23.2489C85.4649 21.3143 88.2682 19.8732 91.3183 19.8732H107.871L102.225 35.1926L93.786 35.2123L93.5885 35.3109C93.5392 35.3306 93.3911 35.4589 93.095 35.7847C92.6015 36.3374 92.1968 36.999 91.8217 38.1933L91.7427 38.5189H102.038L114.741 4.75122H132.232L126.28 20.8306L127.593 19.8831L143.86 19.8732H144.699H160.492H178.131L170.768 38.4302H176.325L185.07 14.9181L202.995 14.9774L201.298 19.5474L203.864 19.8436C204.999 20.1298 206.036 20.5938 206.934 21.1367C209.925 22.8345 211.613 25.687 211.613 29.1714V29.9907C211.613 30.4448 211.593 30.9086 211.573 31.3923L211.386 32.8037L211.346 33.0211L210.774 35.6268C210.675 35.9822 210.438 36.693 210.181 37.4431L209.787 38.4401H224.316L217.644 45.5272C215.028 48.2712 211.82 50.2256 207.911 51.6173C204.022 53.0289 199.926 53.71 195.642 53.71C193.47 53.71 191.476 53.6409 189.937 53.404L188.752 53.1572L182.129 71.0725L164.184 71.0922ZM130.041 38.4892L136.852 38.4794L137.326 37.1272L140.336 29.1911L129.33 37.1272L130.041 38.4892ZM275.407 38.3116L275.812 37.1173L276.69 34.7089H271.992L272.219 35.2911C272.456 36.1696 272.594 37.0679 272.594 38.0056L272.554 38.3116H275.407ZM271.123 32.636L274.331 25.2824L273.976 25.7462H264.608L267.738 28.3226C268.448 29.0234 269.09 29.7242 269.672 30.4645L271.123 32.636ZM37.9276 23.4957L39.0331 23.3378C39.6747 23.1898 40.1682 22.9628 40.5927 22.6667C40.8987 22.4693 41.1356 22.2618 41.2836 21.9558L41.4416 20.9984C40.9579 20.8799 40.3459 20.801 39.5168 20.801H38.8653L37.9276 23.4957Z" fill="#FFC084"></path><path fill-rule="evenodd" clip-rule="evenodd" d="M296.836 70.0558L300.873 59.3363H309.204L309.441 59.1489C309.629 58.9416 309.895 58.5861 310.201 58.0037C310.557 57.2831 311.179 55.7238 312.037 53.2659L312.985 50.4626L311.534 50.887C310.675 51.0548 309.668 51.1733 308.523 51.2029C305.888 51.2029 303.539 50.5613 302.068 48.7945L300.992 46.6623L298.554 48.2516C297.596 48.7944 296.56 49.2781 295.484 49.7223C292.878 50.7587 290.282 51.2916 287.676 51.3014C284.113 51.2916 281.112 50.66 279.099 49.0116C278.23 48.3108 277.608 47.452 277.194 46.4748L276.108 47.531C274.923 48.5773 273.63 49.3966 272.199 50.0086C270.788 50.5416 268.586 51.0744 266.671 51.0744L234.147 51.0547L238.609 40.7991H253.731L255.212 40.4634C255.606 40.3252 255.952 40.1378 256.455 39.8318C256.998 39.4962 257.275 39.2394 257.462 38.9729L257.413 38.6276C257.166 38.1933 256.475 37.2951 254.817 35.9626C251.244 33.1099 248.983 31.2344 248.223 30.4546C245.716 27.8093 244.295 24.9072 244.295 21.7585C244.295 17.4647 245.657 13.9113 248.578 11.4337C250.849 9.49909 254.146 8.31457 258.242 7.70259C258.844 7.62362 259.555 7.53479 260.364 7.45582C261.203 7.3966 262.022 7.35726 262.802 7.35726C263.355 7.35726 269.267 7.35704 269.8 7.37678C270.166 7.40639 271.765 7.41639 272.446 7.50522C273.206 7.60393 273.926 7.82102 274.588 8.17637C276.374 9.12395 277.075 10.8414 277.075 12.8353C277.075 13.7928 276.74 15.1452 276.266 16.7147C275.535 18.9948 274.578 20.9788 273.324 22.6371L272.791 23.3576H261.45L262.595 20.801C263 19.9127 263.207 19.2711 263.296 18.8368L263.355 18.2741L262.98 18.2543C261.628 18.2543 260.749 18.215 260.009 18.3729C259.16 18.5308 258.528 18.7381 257.798 19.0835C256.643 19.6561 256.475 20.1891 256.475 20.6037C256.475 21.2255 257.067 22.5284 259.387 24.5322L266.079 30.05C268.636 32.5276 270.205 35.1826 270.205 38.0056L269.889 40.6904H277.125L278.052 37.9268L280.105 32.3201H273.857L278.27 22.2322L283.856 22.2421L287.459 12.5196H299.235L295.593 22.2421H302.542L298.85 32.3003L291.95 32.3201L288.851 40.7695H301.634L308.365 22.2421H320.437L313.468 39.585L313.35 40.4143L315.127 39.8911C315.847 39.4666 316.598 38.8052 317.397 37.8181C318.226 36.7817 318.512 35.5578 319.302 33.3961L320.26 30.958L323.448 22.2619L335.707 22.2421L328.837 40.8288L329.943 40.8485H337.592L337.76 40.3253C338.066 39.5752 338.264 39.0225 338.392 38.6474C339.33 35.8737 340.425 32.8039 341.659 29.4676L343.525 24.4334C345.015 20.643 346.219 17.8202 347.147 16.004C348.46 13.3389 349.862 11.2068 351.372 9.76566C353.149 8.06789 355.261 7.13989 357.64 7.13989C359.723 7.13989 361.618 7.74217 363.197 9.03523C364.924 10.4369 365.852 12.2926 365.852 14.5036C365.852 17.7511 364.135 21.7683 361.193 26.4273C360.039 28.1645 358.795 29.9315 357.443 31.728C355.952 33.6725 354.412 35.5875 352.793 37.4531L349.852 40.6904L362.477 40.6215C362.477 38.2525 362.862 36.0118 363.651 33.8995C364.441 31.7773 365.675 29.7933 367.293 27.9573C370.571 24.1373 374.568 22.104 379.217 22.104C381.576 22.104 383.699 22.7358 385.475 24.0881C387.361 25.4996 388.328 27.5032 388.328 29.8623C388.328 32.9814 386.857 35.7157 384.301 38.0748C383.383 38.8842 382.356 39.6641 381.182 40.3945L380.264 40.8683H398.722L390.914 46.9584C390.075 47.5309 389.187 48.0737 388.21 48.587C387.864 48.7548 387.41 48.9523 386.857 49.1991C386.285 49.436 385.762 49.6434 385.298 49.8112C382.692 50.6798 379.78 51.0843 376.552 51.0843C372.347 51.0843 368.972 50.5613 366.741 49.2584C365.24 48.4194 364.174 47.225 363.493 45.7444L363.404 45.4778L362.23 46.5538C361.065 47.4323 359.762 48.212 358.311 48.9326C356.712 49.6926 355.064 50.2849 353.386 50.6995C351.599 51.1338 348.431 51.3311 346.792 51.3311C345.025 51.3311 343.515 51.2029 342.281 50.9561C341.037 50.6995 339.892 50.2356 338.984 49.4953C338.264 48.9326 337.701 48.2218 337.286 47.4124L337.188 47.136L336.23 47.8665C333.269 49.89 330.259 50.6008 327.337 50.7489H325.185L322.954 56.7501C321.632 60.4812 320.131 63.4426 318.414 65.5352C316.124 68.4076 313.301 70.0558 309.964 70.0558H296.836ZM167.619 68.7036L175.111 48.587L174.104 49.1497C173.206 49.6136 172.278 50.048 171.34 50.4527C169.297 51.3411 167.342 51.8444 165.556 51.8444C162.634 51.8444 160.097 51.341 158.182 50.0874C157.491 49.6234 156.81 49.1005 156.208 48.5675L155.912 48.2614L154.195 49.3866C151.836 50.6106 149.299 51.341 146.525 51.3805C144.284 51.3805 142.301 50.9363 140.652 49.9098C139.645 49.3175 138.885 48.5673 138.352 47.6691L138.145 47.1953L135.786 48.7945C134.039 49.7421 132.153 50.4626 130.031 50.9858C129.775 51.0351 129.33 51.1141 128.659 51.2128L127.642 51.3706C127.09 51.4496 126.399 51.4793 125.599 51.4793C123.546 51.4793 121.671 51.2028 120.358 50.3539C119.331 49.6333 118.413 48.1429 117.545 46.4254L115.689 42.8424L112.096 51.2918H99.7873L100.666 48.666C99.8071 49.1201 98.9384 49.4855 98.0501 49.8013C95.1974 50.7884 92.3744 51.2916 89.5613 51.3014C87.8734 51.2916 86.4027 51.1831 85.1787 50.9265C82.8689 50.4626 80.9046 49.4952 79.4833 47.9159L78.2692 46.2873L77.2624 47.0869C75.5843 48.2319 73.8471 49.1694 72.0013 49.8999C70.9649 50.275 69.9284 50.5515 68.9019 50.7884C67.8062 51.0154 66.7007 51.1436 65.605 51.1436C62.5056 51.1436 59.8307 50.3835 57.7973 48.666C56.9386 47.9159 56.2772 47.0671 55.7936 46.0405L55.1421 46.4254C53.9379 47.2348 52.4968 47.985 50.72 48.7352C47.1271 50.2849 43.6822 51.0843 40.4249 51.0843H33.2587L36.9701 40.8782H55.8331L62.8906 22.3508H75.0711L67.7174 40.9372H76.7787L76.6899 39.8219C76.6899 37.0779 77.5289 34.3142 79.0786 31.5405C80.4703 29.0531 82.2866 26.9013 84.5272 25.1245C86.7383 23.3379 89.0283 22.2619 91.3183 22.2619H104.446L100.567 32.8037H93.5096L93.0358 32.9519C92.8186 33.0013 92.5422 33.1295 92.256 33.317C91.9993 33.4947 91.6835 33.7712 91.3183 34.1957C90.7951 34.7682 90.3805 35.4098 90.0351 36.1797L89.1467 39.0026L89.0579 39.7034L89.1467 40.1969L89.3836 40.4733C89.6995 40.7003 90.2128 40.888 91.0715 40.888H103.696L116.39 7.13989H128.807L121.315 27.365L128.363 22.2718H145.508L158.084 22.2619L150.927 40.7596L152.576 40.3649C153.257 39.9996 153.938 39.4568 154.59 38.6671C155.705 37.3543 156.899 35.3997 158.212 32.3201L162.121 22.2619L174.627 22.2718L167.264 40.8189H177.983L186.738 17.3167L199.561 17.3463L197.695 22.3805L198.662 22.0843C199.343 21.9362 200.005 21.8672 200.666 21.8672C201.604 21.8672 202.472 21.956 203.292 22.1633C204.14 22.3706 204.97 22.7356 205.74 23.1897C208 24.4827 209.224 26.5556 209.224 29.1714V29.9907C209.224 30.4152 209.204 30.8396 209.184 31.2443L209.017 32.4979L208.484 34.936C208.276 35.6565 207.635 37.6209 207.24 38.4401L205.848 40.8288H218.789L215.906 43.8888C213.607 46.317 210.734 48.0837 207.102 49.3866C203.489 50.6796 199.669 51.3311 195.642 51.3311C192.71 51.3311 190.47 51.183 189.186 50.8079L187.311 50.2059L180.461 68.6938L167.619 68.7036ZM12.323 51.2918L24.5232 18.3828L10.4475 18.3729L21.7396 7.4163H34.6308C39.1121 7.4163 42.5964 7.59405 45.0049 7.98888C48.4695 8.50216 51.332 9.54834 53.3654 11.3251C55.7541 13.4078 56.8399 16.3593 56.8399 19.8733C56.8399 24.6013 55.0631 28.6483 51.5887 31.8957C47.67 35.4689 42.399 37.147 35.9633 37.147H30.1988L24.8193 51.2918H12.323ZM128.6 40.8683L138.55 40.8584L138.737 40.2759C138.984 39.5554 139.26 38.7955 139.556 37.9565L145.37 22.6075L126.261 36.4067L128.6 40.8683ZM190.657 40.6904L191.624 40.6017C192.69 40.2859 193.766 39.4666 194.842 37.8577C196.056 35.9822 196.945 33.1097 196.945 31.5699L196.836 31.2542C196.106 31.2443 195.198 31.6095 194.072 32.8828C193.342 33.7415 192.227 36.0907 191.457 37.976C190.825 39.4961 190.647 40.2956 190.657 40.6904ZM34.5419 26.0029L35.835 25.993C37.3847 25.993 38.6087 25.8745 39.5661 25.6574C40.4742 25.4599 41.254 25.1144 41.9351 24.6505C43.2479 23.7622 43.8994 22.558 43.8994 20.7813C43.8994 19.6067 43.5539 19.2909 43.317 19.1527C42.7346 18.8467 41.5205 18.4124 39.5168 18.4124H37.1675L34.5419 26.0029ZM64.1146 15.4907C64.7562 12.0853 68.1221 9.47937 71.5966 9.47937C75.2882 9.47937 78.0323 12.4406 77.3413 16.1619C76.6899 19.5771 73.3437 22.1633 69.8791 22.1633C66.1776 22.1633 63.4137 19.2021 64.1146 15.4907Z" fill="white"></path><path d="M55.0336 19.8732C55.0336 24.088 53.4741 27.661 50.3549 30.5729C46.8705 33.7414 42.0832 35.3306 35.9634 35.3306H28.9453L23.5757 49.4853H14.9289L27.1192 16.5763L14.9092 16.5664L22.4701 9.22266H34.6308C39.0825 9.22266 42.4485 9.41025 44.7385 9.76559C48.0155 10.2591 50.5029 11.2264 52.181 12.6774C54.0761 14.3554 55.0336 16.7442 55.0336 19.8732ZM56.6228 42.6843C55.3889 44.2636 53.4444 45.6062 50.0094 47.0671C46.5843 48.5378 43.3862 49.2682 40.4249 49.2682H35.8449L38.2435 42.6843H56.6228ZM45.7157 20.7812C45.7157 19.2019 45.2024 18.1359 44.1956 17.5732C43.2973 17.0896 41.7871 16.596 39.5169 16.596H35.8746L32.0151 27.8192L35.8449 27.7994C37.4637 27.7994 38.8358 27.6808 39.9611 27.4242C41.0863 27.1774 42.0833 26.7431 42.9519 26.141C44.7878 24.9071 45.7157 23.1206 45.7157 20.7812Z" fill="#012941"></path><path d="M105.315 42.7039C103.489 44.9446 100.735 46.9288 97.4579 48.0836C94.7829 49.0214 92.1573 49.4852 89.5613 49.4852C87.9425 49.4852 86.6001 49.3765 85.5538 49.1495C83.5007 48.7448 81.9312 47.9255 80.8158 46.6917C80.0657 45.8823 79.4932 44.8952 79.0984 43.7305C78.7035 42.5658 78.5061 41.2727 78.5061 39.8217C78.5061 37.4626 79.2267 34.9851 80.6579 32.4187C81.9411 30.1287 83.6093 28.1645 85.6624 26.5259C87.7056 24.8874 89.6008 24.0681 91.3183 24.0681H101.86L99.3037 30.9974H93.2628L92.5324 31.2046C92.1178 31.3329 91.6835 31.5302 91.259 31.8165C90.8247 32.1027 90.4003 32.4879 89.9463 33.0012C88.6631 34.4522 87.9326 36.1499 87.3601 38.6373L87.2515 39.6738C87.2515 40.651 87.6069 41.3913 88.3077 41.9144C89.0184 42.4475 89.9463 42.7039 91.0715 42.7039H105.315Z" fill="#012941"></path><path d="M140.297 42.6644C139.527 43.6022 138.629 44.5598 137.78 45.2704C136.921 45.9713 135.973 46.6227 134.917 47.2051C133.318 48.0737 131.581 48.7449 129.696 49.2088C129.469 49.2483 129.034 49.3273 128.403 49.4161C128.126 49.4654 127.791 49.5248 127.376 49.5643C126.961 49.6334 126.369 49.6629 125.599 49.6629C123.615 49.6629 122.204 49.3864 121.375 48.8435C120.792 48.4388 120.052 47.3629 119.164 45.6355C117.861 42.931 116.627 40.6806 115.423 38.8545L110.902 49.4853H102.403L117.643 8.95605H126.201L117.555 32.3298L128.955 24.0781L140.247 24.0682L123.921 35.8537L127.514 42.6842L140.297 42.6644Z" fill="#012941"></path><path d="M180.688 42.6251L178.309 44.4807L175.969 45.9909C175.012 46.5733 174.124 47.0866 173.265 47.5308C172.416 47.9849 171.528 48.3995 170.629 48.7844C168.695 49.6136 167.007 50.0281 165.556 50.0281C162.802 50.0281 160.67 49.5445 159.179 48.5772C157.926 47.7283 156.722 46.6522 156.159 45.9218L153.346 47.7776C151.224 48.893 148.953 49.5445 146.505 49.5642C144.531 49.5642 142.893 49.1692 141.59 48.3598C140.099 47.4714 139.349 46.2081 139.349 44.5696C139.349 44.1353 139.991 42.1512 141.264 38.578L146.762 24.0681H150.434H155.448L148.805 41.2233L148.786 41.5293C148.786 41.7662 148.874 42.0328 149.082 42.2795C149.289 42.546 149.743 42.6841 150.454 42.6841C152.546 42.6841 154.392 41.7268 155.991 39.8316C157.245 38.3411 158.508 36.2091 159.89 33.0012L163.365 24.0681H171.962L164.589 42.6251H180.688Z" fill="#012941"></path><path d="M214.584 42.6449C212.521 44.8263 209.915 46.4549 206.5 47.6788C203.084 48.9028 199.462 49.5248 195.642 49.5248C192.69 49.5248 190.697 49.357 189.66 49.0609C188.535 48.7845 187.153 48.36 186.373 47.4913L179.207 66.8872H170.235L187.982 19.113L196.965 19.1427L194.536 25.677C195.227 25.213 196.293 24.7886 197.241 24.4036C198.494 23.9101 199.639 23.6732 200.666 23.6732C201.485 23.6732 202.216 23.7521 202.857 23.9101C203.499 24.0779 204.16 24.3544 204.841 24.7591C206.549 25.7363 207.408 27.1971 207.408 29.1712V29.6252V29.9906C207.408 30.3953 207.408 30.7802 207.388 31.1454C207.368 31.5007 207.319 31.8264 207.26 32.1127C207.131 32.9517 206.973 33.7118 206.766 34.4225C206.539 35.1332 205.917 36.9889 205.601 37.67C205.177 38.5781 204.683 39.4466 204.111 40.2363C203.548 41.0358 202.749 41.8947 201.959 42.6449H214.584ZM198.751 31.5697V30.9875C198.751 30.6519 198.652 30.3064 198.425 29.9906C198.11 29.6254 197.567 29.4476 196.807 29.4476C195.395 29.4476 194.033 30.188 192.72 31.6883C191.743 32.8234 190.539 35.4588 189.779 37.2849C189.157 38.7951 188.851 39.9008 188.851 40.5818C188.851 41.2629 188.979 41.7466 189.265 42.0822C189.591 42.3981 190.025 42.5659 190.558 42.5659C192.779 42.5659 194.704 41.3221 196.362 38.8545C197.725 36.7224 198.751 33.534 198.751 31.5697Z" fill="#012941"></path><path d="M236.911 49.2386L239.803 42.6056H253.918C255.567 42.3094 256.139 42.1416 257.403 41.3816C258.637 40.6117 259.298 39.8023 259.347 38.9436C259.347 37.8282 258.212 36.3671 255.952 34.541C252.319 31.6489 250.187 29.8624 249.546 29.2011C247.256 26.7926 246.111 24.3051 246.111 21.7585C246.111 17.8596 247.325 14.8687 249.743 12.8057C251.658 11.1869 254.57 10.0815 258.489 9.49915C259.061 9.41031 259.732 9.34123 260.532 9.26226C261.321 9.19317 262.081 9.17334 262.802 9.17334C263.394 9.17334 269.248 9.17335 269.731 9.18322C270.215 9.20296 271.646 9.22282 272.209 9.30178C272.771 9.37088 273.285 9.53865 273.729 9.76568C274.765 10.3184 275.259 11.2758 275.259 12.8353C275.259 13.4769 275.022 14.6023 274.519 16.1718C273.857 18.3038 272.979 20.0904 271.883 21.5512H264.253C265.793 18.1261 265.516 16.3495 262.95 16.4482C261.746 16.4482 260.621 16.3888 259.653 16.5863C258.676 16.7738 257.896 17.0207 257.008 17.455C255.448 18.215 254.669 19.2712 254.669 20.6037C254.669 22.104 255.863 23.8708 258.222 25.9239L264.845 31.3528C267.204 33.6625 268.399 35.8834 268.399 38.0056C268.399 39.6738 268.034 41.1742 267.303 42.5067H278.408C277.746 43.2372 276.947 44.1552 276.315 44.8067C275.772 45.3693 275.298 45.8331 274.913 46.1786C273.867 47.0769 272.732 47.8075 271.518 48.3306C270.304 48.7945 268.32 49.2584 266.681 49.2584L236.911 49.2386Z" fill="#012941"></path><path d="M302.749 42.5955C302.364 43.3161 301.663 43.9379 300.242 44.9842C298.643 46.2081 296.836 47.2249 294.813 48.0343C292.394 49.0016 290.025 49.4853 287.676 49.4853C284.261 49.4853 281.774 48.8633 280.234 47.5998C279.029 46.6226 278.417 45.1618 278.417 43.237C278.417 42.5461 278.862 40.9766 279.75 38.5485L282.691 30.5138H276.631L279.444 24.0484H285.12L288.722 14.3257H296.639L292.997 24.0484H299.946L297.586 30.4842L290.687 30.5138L286.265 42.5955H302.749Z" fill="#012941"></path><path d="M299.452 68.2495L302.137 61.1427H309.629C310.419 60.8959 311.149 60.1259 311.81 58.823C312.235 57.9642 312.886 56.3158 313.755 53.858L316.055 46.9584C314.357 48.0046 312.56 49.2779 308.504 49.3865C306.115 49.3865 304.427 48.8041 303.469 47.6295C302.779 46.8201 302.433 45.5667 302.433 43.8887L309.629 24.0583H317.762L311.721 39.0618C311.583 39.6343 311.514 40.1476 311.514 40.5819C311.514 41.3025 311.721 41.7762 312.146 42.0428C312.422 42.2106 312.738 42.2796 313.113 42.2796C315.127 42.2796 317.022 41.1742 318.818 38.9435C320.092 37.3247 320.556 34.8765 321.957 31.5995L324.721 24.0583H333.111L326.261 42.6055L329.933 42.6549H339.359C338.254 44.0466 336.882 45.2903 335.233 46.3564C332.578 48.1726 329.923 48.8042 327.268 48.9325H323.932L321.257 56.1382C319.963 59.7706 318.552 62.5244 317.002 64.3899C314.959 66.9563 312.61 68.2495 309.964 68.2495H299.452Z" fill="#012941"></path><path d="M364.046 14.5035C364.046 17.1982 362.575 20.8403 359.663 25.4401C358.558 27.1379 357.324 28.8652 355.992 30.6222C354.541 32.5569 353.02 34.4323 351.441 36.2485L346.792 41.3814V42.5066H363.987C362.368 44.3623 360.226 45.9614 357.521 47.294C356.041 48.0047 354.521 48.5574 352.961 48.9324C351.382 49.3273 348.391 49.5248 346.792 49.5248C345.104 49.5248 343.712 49.4062 342.646 49.1891C341.6 48.9621 340.751 48.597 340.119 48.0837C339.616 47.679 339.201 47.1854 338.895 46.5833C338.599 45.9911 338.441 45.2409 338.441 44.3525L338.797 42.9804C339.014 42.319 339.221 41.6577 339.448 40.9865C339.754 40.2363 339.971 39.644 340.119 39.2196C341.047 36.4656 342.123 33.4156 343.367 30.0793L345.213 25.0651C346.693 21.3044 347.868 18.5503 348.766 16.8131C350.039 14.2171 351.333 12.3021 352.626 11.0782C354.106 9.65678 355.774 8.95605 357.64 8.95605C359.357 8.95605 360.828 9.43972 362.062 10.4367C363.375 11.5126 364.046 12.865 364.046 14.5035ZM359.308 15.6287C359.308 15.4115 359.18 15.1945 358.903 14.9872L358.449 14.7206C357.65 14.8786 356.515 16.4775 355.054 19.488C354.55 20.485 353.998 21.719 353.415 23.1305C352.823 24.5519 352.172 26.2199 351.441 28.1348L349.447 33.8203C349.891 33.5143 350.908 32.1721 352.517 29.8031C354.126 27.4144 355.626 24.8873 357.028 22.2124C358.538 19.2413 359.308 17.05 359.308 15.6287Z" fill="#012941"></path><path d="M393.461 42.6842L389.878 45.4776C389.118 46.0008 388.279 46.4943 387.39 46.9583C387.104 47.1063 386.689 47.2939 386.137 47.5209C385.594 47.7578 385.13 47.9553 384.725 48.0836C382.346 48.8733 379.622 49.2681 376.552 49.2681C372.416 49.2681 369.455 48.7448 367.649 47.6887C365.398 46.4154 364.283 44.0563 364.283 40.6213C364.283 38.4498 364.628 36.4261 365.349 34.5309C366.05 32.6358 367.165 30.8393 368.656 29.1416C371.647 25.6572 375.17 23.9199 379.217 23.9199C381.241 23.9199 382.968 24.4531 384.38 25.5389C385.801 26.595 386.502 28.0459 386.502 29.8621C386.502 32.3397 385.367 34.62 383.077 36.7224C382.267 37.4628 381.31 38.1734 380.224 38.8544C379.128 39.5454 377.855 40.2166 376.394 40.8582L372.031 42.6842H393.461ZM379.79 30.8986V30.5434L379.711 30.0498C379.671 29.9511 379.533 29.7932 379.316 29.5563C379.089 29.4675 378.773 29.418 378.368 29.418H377.826L377.381 29.5563C375.851 30.4743 374.697 31.6388 373.907 33.0503C373.384 34.0275 373.038 35.1629 372.88 36.4658C374.124 36.1993 375.486 35.528 376.927 34.4521C378.546 33.2676 379.494 32.0732 379.79 30.8986Z" fill="#012941"></path><path d="M79.8091 42.7436C78.743 43.7307 77.5388 44.6883 76.2359 45.5964C74.6664 46.6723 73.0476 47.5309 71.3696 48.212C70.4516 48.5378 69.4843 48.7945 68.517 49.0116C67.5496 49.2189 66.5724 49.3372 65.6051 49.3372C62.7919 49.3372 60.5809 48.6464 58.9819 47.2941C57.6296 46.0998 56.9485 44.6882 56.9485 43.0497L64.1442 24.157H72.3961L65.0523 42.7436H79.8091Z" fill="#012941"></path><path fill-rule="evenodd" clip-rule="evenodd" d="M71.5966 11.2957C74.2518 11.2957 76.0384 13.319 75.5646 15.8163C75.0908 18.3234 72.5343 20.347 69.8791 20.347C67.2041 20.347 65.4175 18.3234 65.8913 15.8163C66.375 13.319 68.9315 11.2957 71.5966 11.2957Z" fill="#012941"></path></svg> 