<?xml version="1.0" encoding="UTF-8"?> <svg xmlns="http://www.w3.org/2000/svg" width="41" height="40" viewBox="0 0 41 40" fill="none"><path fill-rule="evenodd" clip-rule="evenodd" d="M38.7419 27.0705V28.1663C37.8536 28.8079 36.0373 29.4098 34.8528 29.9231C33.4808 30.5351 32.168 31.0387 30.7861 31.6408C29.4042 32.233 28.0716 32.7562 26.7095 33.3484L23.6693 34.6413C23.1462 34.8387 22.9882 34.9672 22.9684 34.2861C22.9388 33.4175 23.8273 33.3089 24.5083 33.0226L30.6281 30.407C31.6843 29.9628 38.1892 27.0804 38.7419 27.0705ZM27.7756 23.369C27.7657 25.0273 27.7952 26.6955 27.8051 28.3538C27.815 29.2619 28.0026 30.1107 27.3906 30.5352C26.9859 30.8115 25.9988 31.2162 25.4954 31.1767C25.2092 29.7553 25.3374 26.2414 25.3276 24.5831C24.7353 24.6917 24.686 24.9978 24.1036 24.9188C24.1036 24.9089 23.8469 24.8694 24.0838 24.1587C24.1529 23.9613 24.3307 23.6257 24.4294 23.3987C25.2191 21.7601 25.8013 19.5194 26.9167 19.3318L28.5751 21.3652C29.4338 22.3523 29.5425 22.6485 27.7756 23.369ZM32.1878 21.0888C32.1384 20.3189 32.8689 19.1246 33.1847 18.4337C34.9615 14.5742 34.8528 14.4162 36.9751 17.1405C37.8141 18.2165 38.6334 18.2659 36.2545 19.4405L36.2446 24.3166C36.2446 26.1723 36.4816 26.6461 35.4056 27.1101C34.8924 27.3272 34.2507 27.7319 33.777 27.5937C33.4216 26.8435 33.6387 22.1846 33.6289 20.7336C32.9971 20.8323 33.0169 21.1382 32.1878 21.0888ZM8.94221 13.2911C9.22846 12.7186 10.7979 12.2546 11.3901 11.9683L18.7734 8.46415C20.027 7.89165 28.2296 4.1311 28.7034 3.7264C26.7391 2.95649 24.6663 1.89048 22.6625 1.0416C19.9678 -0.103404 18.349 1.04137 16.1182 2.03831C12.1009 3.83478 8.15253 5.59193 4.11541 7.3884C2.01295 8.31625 0.137589 8.96761 0.117847 12.2151C0.107976 14.7321 0.00923564 28.0281 0.20665 29.4199C0.364581 30.5452 1.20361 31.6605 1.82546 32.1047C2.76318 32.766 15.2497 37.9777 16.9178 38.6785C20.0863 40.0012 20.2935 40.3269 23.6298 38.8759L35.7807 33.674C38.13 32.6672 39.9067 32.3118 40.6766 29.9527C41.1306 28.5807 40.8739 15.443 40.8838 12.8865C40.8937 8.47424 39.0775 8.35567 35.149 6.58881C32.5629 5.43394 32.5628 5.14761 31.2895 5.76947L12.4068 14.6039L12.3871 20.6151L8.94221 19.1048V13.2911Z" fill="white"></path></svg> 